<?xml version="1.0" standalone="no"?>
<!DOCTYPE svg PUBLIC "-//W3C//DTD SVG 20010904//EN"
 "http://www.w3.org/TR/2001/REC-SVG-20010904/DTD/svg10.dtd">
<svg width="109" height="57" viewBox="0 0 109 57" fill="none" xmlns="http://www.w3.org/2000/svg">
    <g transform="translate(0.000000,380.000000) scale(0.100000,-0.100000)" stroke="none">
        <path d="M80 1930 l0 -1790 1955 0 1955 0 0 1790 0 1790 -1955 0 -1955 0 0
        -1790z m2004 1288 l50 -60 -12 -44 c-21 -79 -12 -131 27 -161 19 -15 87 -17
        96 -3 3 6 19 10 34 10 38 0 68 27 79 70 l10 35 16 -37 c9 -21 16 -46 16 -56 0
        -10 -23 -55 -51 -101 -28 -46 -47 -87 -43 -91 5 -5 32 -17 59 -28 60 -23 62
        -27 147 -247 l62 -160 16 80 c16 82 33 125 50 125 5 0 17 -26 26 -57 13 -46
        15 -80 10 -168 -3 -60 -9 -126 -12 -145 l-5 -35 21 27 c24 31 80 68 104 68 35
        0 13 -96 -39 -164 l-26 -35 50 20 c71 26 111 26 111 -3 0 -34 -45 -102 -87
        -131 -21 -15 -60 -34 -87 -43 l-48 -17 104 -35 c120 -41 205 -47 238 -17 28
        26 25 44 -11 59 l-31 13 23 17 c13 9 37 16 53 16 30 0 76 -33 76 -55 0 -6 5
        -16 11 -22 8 -8 22 0 53 32 87 91 222 79 296 -24 20 -29 20 -31 3 -31 -20 0
        -69 -29 -133 -77 -32 -25 -53 -33 -83 -33 -38 0 -39 -1 -34 -28 5 -27 -22 -92
        -39 -92 -3 0 -19 11 -35 24 -34 29 -92 42 -250 56 -63 5 -137 17 -165 25 -48
        14 -150 72 -142 80 2 2 26 -2 53 -11 52 -15 195 -31 195 -21 0 11 -69 48 -126
        68 -65 23 -176 27 -241 10 -43 -12 -133 -66 -133 -80 0 -5 15 -13 33 -16 51
        -11 143 -52 250 -111 128 -71 212 -102 317 -118 l85 -13 -40 -13 c-67 -21
        -221 -24 -299 -6 -130 31 -256 90 -358 169 -36 27 -38 28 -38 7 0 -57 69 -139
        159 -188 43 -24 50 -31 35 -36 -25 -8 -121 8 -169 28 -56 24 -128 80 -160 126
        l-28 41 -23 -89 c-23 -94 -43 -140 -68 -161 -12 -10 -17 -8 -30 11 -24 37 -46
        96 -65 171 l-17 71 -24 -38 c-47 -78 -168 -146 -280 -160 -69 -8 -77 6 -20 33
        63 30 145 116 159 166 6 22 9 40 8 41 -1 2 -41 -23 -88 -55 -93 -62 -208 -112
        -316 -137 -77 -18 -231 -15 -298 6 l-40 13 100 17 c115 20 182 45 321 122 102
        57 220 108 248 108 29 0 17 20 -31 50 -62 39 -112 52 -198 52 -75 -1 -160 -25
        -224 -64 l-36 -23 42 -3 c23 -2 79 6 125 17 46 10 85 18 87 16 8 -8 -97 -66
        -143 -80 -28 -8 -102 -20 -165 -25 -160 -15 -216 -27 -251 -57 -24 -20 -33
        -23 -44 -13 -20 16 -35 65 -26 81 13 20 2 29 -38 29 -29 0 -51 11 -102 51 -36
        28 -77 53 -92 56 -16 3 -28 9 -28 12 0 4 15 22 33 41 38 39 100 70 142 70 44
        0 113 -35 151 -76 l33 -36 15 35 c8 19 23 40 34 46 29 15 73 13 96 -4 21 -16
        21 -17 -12 -34 -35 -18 -25 -53 18 -68 46 -17 100 -9 214 31 l95 33 -56 23
        c-31 13 -71 37 -90 53 -35 31 -73 94 -73 122 0 22 65 19 119 -5 57 -26 58 -26
        25 13 -54 64 -84 167 -49 167 27 0 71 -28 105 -67 l33 -38 -7 35 c-28 136 -26
        304 4 360 l13 24 18 -23 c23 -28 39 -83 39 -133 0 -21 4 -38 9 -38 8 0 22 32
        115 275 l34 90 61 26 c33 14 63 28 67 31 3 4 -12 33 -34 65 -64 95 -72 116
        -62 155 6 18 16 43 25 53 14 19 14 18 15 -13 0 -39 41 -87 69 -79 10 2 26 -2
        36 -9 48 -35 125 -2 141 60 5 23 -5 84 -21 127 -5 13 90 140 104 138 3 0 28
        -27 55 -61z m-949 -2232 c39 -17 68 -56 59 -80 -12 -30 -39 -14 -36 22 2 26
        -3 34 -28 47 -38 20 -104 19 -136 -2 -43 -28 -68 -89 -68 -168 0 -112 46 -174
        137 -187 l52 -7 -62 3 c-47 2 -70 8 -102 29 -120 79 -110 269 17 337 44 23
        119 26 167 6z m528 -7 c5 -19 4 -20 -12 -5 -13 12 -38 16 -89 16 l-72 0 0 -90
        0 -90 48 0 c26 0 53 5 60 12 9 9 12 4 12 -23 -1 -30 -2 -32 -14 -16 -9 12 -27
        17 -60 17 l-46 0 0 -90 0 -90 76 0 c61 0 80 4 91 18 13 16 14 16 11 -3 -3 -19
        -12 -20 -133 -23 -103 -2 -127 0 -117 10 17 17 17 364 0 371 -7 3 44 6 113 6
        120 1 127 0 132 -20z m258 7 c-8 -9 -11 -43 -9 -95 l3 -82 60 0 c37 0 60 4 60
        11 0 6 6 9 13 5 10 -7 9 -11 -5 -16 -11 -3 -20 -17 -20 -29 0 -20 -7 -21 -62
        -21 -57 0 -61 -1 -55 -20 3 -11 11 -23 18 -26 6 -2 60 -3 119 0 94 3 108 1
        111 -13 2 -9 4 -113 2 -230 l-3 -213 -2 215 -3 215 -88 3 -87 3 0 -228 c0
        -125 3 -233 7 -237 4 -4 47 -8 95 -8 71 0 89 3 85 13 -4 6 -4 9 1 6 4 -3 9 1
        9 9 1 9 -1 12 -5 8 -9 -8 -24 -13 -75 -15 -19 -1 -39 -3 -45 -5 -5 -1 -10 -1
        -10 1 0 1 -18 3 -40 4 -22 0 -40 3 -40 4 0 1 -12 2 -28 2 -15 0 -31 1 -35 1
        -3 0 -6 -4 -6 -8 0 -7 -11 -7 -36 -1 -20 4 -38 12 -40 17 -4 11 -1 11 16 0 11
        -8 18 -8 20 0 1 6 0 8 -4 6 -8 -3 -16 0 -36 16 -15 12 -28 13 -38 6 -9 -6 -18
        -8 -20 -5 -3 3 -1 13 5 23 6 12 6 20 -1 22 -6 3 -8 9 -5 14 3 6 -2 10 -11 10
        -8 0 -14 6 -14 13 0 8 5 15 12 15 6 0 9 3 6 7 -3 4 -2 8 2 9 4 0 5 11 2 23
        -3 11 -9 26 -13 31 -4 6 -7 1 -7 -10 -1 -10 1 -19 4 -19 4 0 6 -2 4 -6 -3 -3
        -5 -9 -5 -12 1 -3 -1 -8 -5 -12 -4 -3 -1 -8 5 -10 5 -2 7 -7 3 -11 -4 -4 -12
        -5 -17 -3 -6 1 -9 6 -7 11 2 4 0 9 -5 10 -5 0 -9 7 -9 13 0 7 5 12 10 12 6 0
        10 5 10 11 0 6 -4 7 -10 3 -5 -3 -10 0 -10 6 0 8 10 9 33 2 19 -5 37 -5 41 2
        4 7 6 1 6 -11 -1 -12 -4 -24 -8 -27 -5 -3 -8 -11 -8 -18 0 -8 6 -10 12 -6 7 4
        11 13 10 20 -2 7 1 10 7 7 5 -3 10 -1 10 5 0 5 -6 11 -14 13 -8 1 -11 1 -5 -1
        7 -1 4 3 -5 10 -9 7 -20 13 -24 13 -3 0 -6 -5 -6 -10 0 -6 -7 -8 -16 -5 -8 4
        -13 2 -11 -2 2 -5 0 -9 -3 -9 -4 0 -11 6 -16 13 -4 6 -1 7 7 3 10 -6 16 -3 20
        9 3 9 1 16 -4 16 -6 0 -8 6 -4 14 3 8 2 14 -3 14 -5 0 -9 -4 -9 -10 0 -5 4
        -10 10 -10 6 0 10 6 10 13 0 10 -2 10 -9 0 -5 -6 -10 -7 -10 -3 0 5 -8 7 -17
        5 -9 -2 -19 2 -23 10 -7 11 -6 11 5 3 7 -5 14 -7 16 -3 1 3 6 1 11 -5 5 -7 12
        -10 16 -7 5 3 2 11 -5 18 -7 7 -10 15 -6 19 4 3 7 0 7 -7 0 -9 3 -10 10 -3 7
        6 7 12 0 18 -6 6 -8 16 -5 22 4 7 0 6 -10 -3 -11 -10 -14 -18 -8 -25 5 -7 7
        -15 3 -20 -4 -4 -10 -4 -13 0 -4 3 -8 2 -10 -1 -2 -3 -5 1 -7 9 -3 9 -8 13
        -14 9 -5 -3 -9 -1 -9 4 0 6 7 10 16 10 8 0 12 5 9 10 -3 6 1 10 10 10 8 0 12
        5 9 10 -3 6 0 10 7 10 6 0 11 6 11 14 0 8 4 12 9 9 5 -4 7 0 3 8 -3 7 -1 16
        6 20 6 3 11 2 11 -3 0 -6 6 -5 14 2 8 7 16 17 19 21 4 5 5 -3 3 -17 -2 -15 0
        -26 4 -26 4 0 7 -4 7 -8 0 -4 -4 -6 -9 -3 -5 3 -10 -1 -10 -9 0 -8 -4 -12 -9
        -9 -5 3 -14 0 -20 -6 -9 -8 -9 -12 0 -12 7 0 17 -3 22 -7 4 -4 3 -7 -2 -7 -6
        0 -11 -3 -11 -8 0 -4 9 -5 19 -2 18 5 19 4 8 -8 -7 -8 -19 -11 -28 -8 -9 2
        -12 1 -7 -4 5 -4 13 -7 18 -6 5 0 6 5 3 10 -3 6 0 7 6 3 6 -3 8 -9 4 -14 -4
        -4 3 -8 16 -8 18 -1 23 2 16 11 -5 6 -7 12 -4 14 3 1 7 8 8 15 0 7 6 10 14 7
        9 -3 11 0 7 9 -3 9 -1 16 6 16 8 0 7 6 -3 17 -10 10 -15 10 -20 0 -5 -8 -14
        -10 -23 -6 -8 4 -16 3 -19 -2 -5 -7 -4 -7 5 -1 10 6 10 11 1 20 -6 7 -9 18 -6
        24 4 6 2 7 -5 3 -6 -4 -10 -3 -10 2 0 6 7 8 15 5 8 -4 15 -1 15 4 0 6 -7 11
        -15 11 -8 0 -15 -5 -15 -11z"/>
    </g>
</svg>
